<?xml version="1.0" standalone="no"?>
<!DOCTYPE svg PUBLIC "-//W3C//DTD SVG 20010904//EN" "http://www.w3.org/TR/2001/REC-SVG-20010904/DTD/svg10.dtd">
<svg version="1.0" xmlns="http://www.w3.org/2000/svg" width="127.000000pt" height="87.000000pt" viewBox="0 0 127.000000 87.000000" preserveAspectRatio="xMidYMid meet">
<g transform="translate(0.000000,87.000000) scale(0.100000,-0.100000)" fill="#000000" stroke="none">
<path d="M260 670 l0 -89 -92 -3 -93 -3 -3 -88 c-2 -55 1 -87 8 -88 5 -1 47
-2 93 -3 l82 -1 3 -183 2 -183 43 3 42 3 5 90 5 90 40 0 40 0 3 -93 3 -92 44
0 44 0 3 93 3 92 85 0 85 0 5 -90 5 -90 42 -3 42 -3 3 93 3 93 45 0 45 0 1
-90 2 -90 43 0 44 0 5 180 5 180 88 -1 87 -1 0 93 0 94 -90 0 -90 0 0 90 0 90
-365 0 -365 0 0 -90z"/>
<path d="M350 625 l0 -45 45 0 45 0 0 45 0 45 -45 0 -45 0 0 -45z"/>
<path d="M807 664 c-4 -4 -7 -25 -7 -46 l0 -39 48 3 47 3 0 40 c0 40 0 40 -40
43 -23 2 -44 0 -48 -4z"/>
</g>
</svg>
