<?xml version="1.0" standalone="no"?>
<!DOCTYPE svg PUBLIC "-//W3C//DTD SVG 20010904//EN"
 "http://www.w3.org/TR/2001/REC-SVG-20010904/DTD/svg10.dtd">
<svg version="1.0" xmlns="http://www.w3.org/2000/svg"
 width="157.000000pt" height="117.000000pt" viewBox="0 0 157.000000 117.000000"
 preserveAspectRatio="xMidYMid meet">
<metadata>
Created by potrace 1.16, written by Peter Selinger 2001-2019
</metadata>
<g transform="translate(0.000000,117.000000) scale(0.100000,-0.100000)"
fill="#000000" stroke="none">
<path d="M394 993 c-41 -8 -65 -47 -71 -111 l-6 -59 -60 -6 c-50 -4 -65 -11
-91 -36 l-31 -31 0 -116 0 -116 33 -29 c18 -16 41 -30 52 -30 11 -1 37 -2 58
-3 l37 -1 5 -152 c5 -150 6 -153 32 -180 23 -23 35 -27 85 -26 73 1 131 0 210
0 52 -1 66 3 88 23 14 13 25 31 25 41 0 10 5 21 10 24 6 3 10 -2 10 -13 0 -10
14 -31 30 -47 26 -25 37 -29 88 -28 72 1 131 1 205 0 52 -1 61 2 90 31 l32 32
5 147 5 147 58 1 c49 2 63 7 85 29 26 26 27 29 27 151 0 121 -1 125 -26 151
-20 20 -39 27 -86 31 l-60 6 -6 60 c-4 47 -11 66 -31 86 l-26 26 -378 1 c-207
1 -387 0 -398 -3z"/>
</g>
</svg>
